<mxfile host="app.diagrams.net" modified="2023-12-28T00:19:39.369Z" agent="Mozilla/5.0 (Windows NT 10.0; Win64; x64) AppleWebKit/537.36 (KHTML, like Gecko) Chrome/120.0.0.0 Safari/537.36 Edg/120.0.0.0" version="22.1.15" etag="imB_mOqLo1nt107UA5H2" type="github">
  <diagram name="PÃ¡gina-1" id="P2q1crChl8DnajQV8Ex7">
    <mxGraphModel>
      <root>
        <mxCell id="0" />
        <mxCell id="1" parent="0" />
      </root>
    </mxGraphModel>
  </diagram>
</mxfile>
